P1
# PBM example 
24 7
000000000000000000000000
000000000000000000000000
011100011100011100011110
001000001000001000001000
001000011100011100001000
000000000000000000000000
000000000000000000000000
