P1
# Created by GIMP version 2.10.24 PNM plug-in
228 178
0000000000000000000000000000000000000000000000000000000000000000000000
0000000000000000000000000000000000000000000000000000000000000000000000
0000000000000000000000000000000000000000000000000000000000000000000000
0000000000000000000000000000000000000000000000000000000000000000000000
0000000000000000000000000000000000000000000000000000000000000000000000
0000000000000000000000000000000000000000000000000000000000000000000000
0000000000000000000000000000000000000000000000000000000000000000000000
0000000000000000000000000000000000000000000000000000000000000000000000
0000000000000000000000000000000000000000000000000000000000000000000000
0000000000000000000000000000000000000000000000000000000000000000000000
0000000000000000000000000000000000000000000000000000000000000000000000
0000000000000000000000000000000000000000000000000000000000000000000000
0000000000000000000000000000000000000000000000000000000000000000000000
0000000000000000000000000000000000000000000000000000000000000000000000
0000000000000000000000000000000000000000000000000000000000000000000000
0000000000000000000000000000000000000000000000000000000000000000000000
0000000000000000000000000000000000000000000000000000000000000000000000
0000000000000000000000000000000000000000000000000000000000000000000000
0000000000000000000000000000000000000000000000000000000000000000000000
0000000000000000000000000000000000000000000000000000000000000000000000
0000000000000000000000000000000000000000000000000000000000000000000000
0000000000000000000000000000000000000000000000000000000000000000000000
0000000000000000000000000000000000000000000000000000000000000000000000
0000000000000000000000000000000000000000000000000000000000000000000000
0000000000000000000000000000000000000000000000000000000000000000000000
0000000000000000000000000000000000000000000000000000000000000000000000
0000000000000000000000000000000000000000000000000000000000000000000000
0000000000000000000000000000000000000000000000000000000000000000000000
0000000000000000000000000000000000000000000000000000000000000000000000
0000000000000000000000000000000000000000000000000000000000000000000000
0000000000000000000000000000000000000000000000000000000000000000000000
0000000000000000000000000000000000000000000000000000000000000000000000
0000000000000000000000000000000000000000000000001100000000000000000000
0100010000000000000000000001000000000000000000000110000000000011100000
0100000000000000000000000000000000000100000000000000000100000000000000
0000110000000000000000000000000000000000000000000000000000000000001100
0000000000000000000100010000000000000000000001100000000000000000000100
0000000000010000000100000000000000000000000000000000000100000000000000
0001000000000000000000100000000000000000000000000000000000000000000000
0000000000000011000000000000000000000100000000000000000000000001000000
0000000000000001100000000000010000000100000000000000000000000000000001
0001100000000000000001000000000000000000110000000000000000000000000000
0000000000000000000000000000000011001111100000001011000100010000111001
1111000000010001011001111100001011000111000000010000000100010001110000
1110011111000000111001111100001110000001111100001110000101100110001000
0000000000000000000000000000000000000000000000000010000100010000000001
0001000100010010001000100000011000001000100010010001101000000000010000
0001001000100010010001001000100000010001000100110010000001000100110001
0010001100100010000000000000000000000000000000000000000000000000000011
0001000100000000010001000100110011001000100000010000001100100010010001
0011000000000100000001010000100011010001001000100000010001000110100011
0000010001101000011010001000110100000000000000000000000000000000000000
0000000000000000110011000100000010110001000100110111011000100000011001
0110011000101100011001110000000100000001111000111010011111011000110000
0100011001001110100000010000101100010110001100010100000000000000000000
0000000000000000000000000000000000110001000100000110010001000100110000
0010001000000100110010001000100100010000011000000100000001001000100000
0100000010001000000100010001101000000000010001101000010010001000010100
0000000000000000000000000000000000000000000000000000100001000100000100
0110010001000100000010001000000110100010011000100100011010001000000100
0000010011001100000100000010001000000100011001001100000000010001001100
0100100011000110000000000000000000000000000000000000000000000000000000
1110110011000000110110111011100011100110011000000110011111011001100011
0110111100000011100000011001100111100011110011110000000111011001100111
1000000110110000111000011011000010000000000000000000000000000000000000
0000000000000000000000000000000000000000000000000000000000000000000000
0000000000000000000000000000000000000000000000000000000000000110000000
0000000000000000000000000000000000000000000000000010000000000000000000
0000000000000000000000000000000000000000000000000000000000000000000000
0000000000000000000000000000000000000000000000000000000000000000000000
0000000000100000000000000000000000000000000000000000000000000000000100
0000000000000000000000000000000000000000000000000000000000000000000000
0000000000000000000000000000000000000000000000000000000000000000000000
0000000000000000000000000001100000000000000000000000000000000000000000
0000000000000110000000000000000000000000000000000000000000000000000000
0000000000000000000000000000000000000000000000000000000000000000000000
0000000000000000000000000000000000000000000000000000000000000000000000
0000000000000000000000000000000000000000000000000000000000000000000000
0000000000000000000000000000000000000000000000000000000000000000000000
0000000000000000000000000000000000000000000000000000000000000000000000
0000000000000000000000000000000000000000000000000000000000000000000000
0000000000000000000000000000000000000000000000000000000000000000000000
0000000000000000000000000000000000000000000000000000000000000000000000
0000000000000000000000000000000000000000000000000000000000000000000000
0000000000000000000000000000000000000000000000000000000000000000000000
0000000000000000000000000000000000000000000000000000000000000000000000
0000000000000000000000000000000000000000000000000000000000000000000000
0000000000000000000000000000000000000000000000000000000000000000000000
0000000000000000010000000000000000000000000000000000000000000000000000
0000000000000000000000000000000000000000000000000000000000000000000000
0000000000000000000000000000000000000000000000000000000000000000000000
0000000000000000000000011011000001000000000000000000000000000010000000
0000000000000000000000000000000000000100000000000000000000000000100000
0000000000000000000000000000000000001100000000001000000010000000000000
0000000000000000000000000000000000000000110000110001000000000000000000
0000000000100000000000000000000000000000000000000000000100000000000000
0000000000001000000000000000000000000000000000000000000100000000001000
0000000000000000000000000000000000000000000000000000000000100000010001
0000000000000000000000000000000000000000000000010000000000000000000001
0000000000000000000000000000000000100000000000000000000000000000000000
0011000000100010000000000000000000000000000000000000000000000000000000
0000011000000110111100000011100111111000011100110001110011111100111000
0011111000101100111001001100011001110000001101101001110001110001110000
0001110011111100011011000001110010111001100111110000111100011100010000
0000000000000000000000011000000110010000000100100010001001100000100010
0010010001001000000010001000000100100001000100010010001000000100001000
1000100100100000000010010001000100100001000000100010001000100100011001
0001001000000100000000000000000000000000011000000110010000000000110010
0010010000001100100010010001001100000010001100000100110001000100010010
0010000001000010001001100110110000000000011001000100100001000000100010
0010001001100010010001001100000000000000000000000000000000011000000100
0100000000101100100010010000000101111110010001001000000011001000110100
1000010001101001111110000001000010001001101010011100000001011001000100
1000110000011000100010001000100110010011000111000000000000000000000000
0000000010000001000100000001000100100010010000000100100000010001001100
0000100011010001001100010000101000100000000001000010001001100000000110
0000100010010001001000010000001000100010001000100010011010000001000000
0000000000000000000000000011000011000100000011001100100010011000001100
1000000100010010000000100010011001001000010000110000100000000011000010
0010001000001000100001100110010001001100110000011000100010011001100110
0100000000011001000000000000000000000000000000101100001110000001101100
1101110011110011000111001110011001100000110011001101100110111000010000
0111000000110000110011100111001111000000110110011011100110110000001110
1101110110011001100111111011010001000000000000000000000000000000000000
0000000000000000000000000000000000000000000000000000000000000000000000
0000000000000000000000000000000000000000000000000000000000000000000000
0000000000000000000000000000000000000100001000000000000000000000000000
0000000000000000000000000000000000000000000000000000000000000000000000
0000000000000000000000000000000000000000000000000000000000000000000000
0000000000000000000000000000000000000000000000000000000100001000000000
0000000000000000000000000000000000000000000000000000000000000000000000
0000000000000000000000000000000000000000000000000000000000000000000000
0000000000000000000000000000000000000000000000000000000000000000000000
0001011100000000000000000000000000000000000000000000000000000000000000
0000000000000000000000000000000000000000000000000000000000000000000000
0000000000000000000000000000000000000000000000000000000000000000000000
0000000000000000000000000000000000000000000000000000000000000000000000
0000000000000000000000000000000000000000000000000000000000000000000000
0000000000000000000000000000000000000000000000000000000000000000000000
0000000000000000000000000000000000000000000000000000000000000000000000
0000000000000000000000000000000000000000000000000000000000000000000000
0000000000000000000000000000000000000000000000000000000000000000000000
0000000000000000000000000000000000000000000000000000000000000000000000
0000000000000000000000000000000000000000000000000000000000000000000000
0000000000000000000000000000000000000000000000000000000000000000000000
0000000000000000000000000000000000000000000000000000000000000000000000
0000000000000000000000000000000000000000000000000000000000000000000000
0000000000000000000000000000001000000000000000000000000000000000000000
0000000000000000000000000000000000000000000000000000000000000000000000
0000000000000000000000000000000000000000000000000000000000000000001100
0000000000001000000000000011001100000000000000100100000000000000000000
0000000000000110010000000000001000000000000011000000100000000000010001
0000000000000000000000000000000000000000000000000000000000000000000000
0000000000000011000000000000001100000000000001000100000000000000100000
0000000000000000000000000000000010010000000000001000000000000010000000
1000000000000100000000000000000000000000000000000000000000000000000000
0000000000000000000000000000000011000000000000001000000000000001001100
0000000000001100000000000000000000000000000000000110000000100010001000
0000000000110000000000000000000100000000000000000000000000000000000000
0000000000000000000000000000000000000000000000000011000000011111001000
0111000011110001001100010000001110110100011100011100000001011000000010
0110011101110010000111000000111110001001101100101100110000111000000000
0000000000000000000000000000000000000000000000000000000000000000000010
0000001000100011001001001100010011001100010000001000010011100100100010
0000000010000001100010010000100010001001000000100011001100100001000100
0100110010000000000000000000000000000000000000000000000000000000000000
0000000000000000110000001000110010000001101000010001000100100000001000
0100010001101000100000000010000000100010011000100010011001100000110001
0010001000110001000100100011000000000000000000000000000000000000000000
0000000000000000000000000000000000110000001100100011000101001100010011
0001101000000011001100011101001110100000011010000001100110010001100010
0110101000001000010011001000100001001100111010000000000000000000000000
0000000000000000000000000000000000000000000000000000110000000111000011
0010011010000100010000100000000010000100010000001000000000100010000000
1000100110001000100110000000001100010010001000110001000100100000000000
0000000000000000000000000000000000000000000000000000000000000000000000
1000000010000000100110010011000100110000110000000010000100011000001100
0000001100100000011001100100011000100010000000001000110011001000010001
0001001100000000000000000000000000000000000000000000000000000000000000
0000000000000000001100000011111100110011111001111100110000010000000011
0011000011110001111000000110110000011001100011001101110001110000000110
1000110111000111111011000111100000000000000000000000000000000000000000
0000000000000000000000000000000000000000000000000110000000000000000000
0000001000000000000000000000000000000000000000000000000000000000000000
0000000000000000000000000000000000000000000000000000000000000000000000
0000000000000000000000000000000000000000000000000000000000000010000100
0000000000000000000000001000000000000000000000000000000000000000000000
0000000000000000000000000000000000000000000000000000000000000000000000
0000000000000000000000000000000000000000000000000000000000000000000000
0000000000110110000000000000000000000000110000000000000000000000000000
0000000000000000000000000000000000000000000000000000000000000000000000
0000000000000000000000000000000000000000000000000000000000000000000000
0000000000000000000000000000000000000000000000000000000000000000000000
0000000000000000000000000000000000000000000000000000000000000000000000
0000000000000000000000000000000000000000000000000000000000000000000000
0000000000000000000000000000000000000000000000000000000000000000000000
0000000000000000000000000000000000000000000000000000000000000000000000
0000000000000000000000000000000000000000000000000000000000000000000000
0000000000000000000000000000000000000000000000000000000000000000000000
0000000000000000000000000000000000000000000000000000000000000000000000
0000000000000000000000000000000000000000000000000000000000000000000000
0000000000000000000000000000000000000000000000000000000000000000000000
0000000000000000000000000000000000000000000000000000000000000000000000
0000000000000000000000000000000000000000000000000000000000000000000000
0000000000000000000000000000000000000000000000000000000000000000000000
0000000000000000000000000000000000000000000000000000000000000000000000
0000000000000000000000000000000000000000000000000001000000000000000000
0000000000000000000000000000000000000000000000000000000000000000000000
0000000000000000000000000000000000000000000110000000000000000000000000
0010000000001100000000000000000000001000000000000000000000000000000101
0000000001000000000000000000000000000000000000100000000000000000000000
0000000000000000000000000000000000000000000000000000000000000110000000
0000000000000000000010000000001000000000000000000000001000000000000000
0000000000000001000000000001000000000000000000000000000000000000000000
0000000000000000000000000000000000000000000000000000000000000000000000
0000000010100000010000000000000000000010000000001100000000000000000010
0000000000000000000000000000000001000000010001100000000000000000000000
0000000000000000000000000000000000000000000000000000000000000000000000
0000000000000000000000000010110000111000000011100011100010000111001111
1001101101011001110010000111000111110000000011100011100000111001111100
0011100000010110111110001111011001111100001111000000000000000000000000
0000000000000000000000000000000000000000000100110000100000001100000100
0100100010010010001100100001001000100011001000100100011000001100010001
0000000100010001001100100000010000010001001000001000100010010001000000
0000000000000000000000000000000000000000000000000000000000000100011000
1100000010000001000100100110011010000100100000001100100010011000110110
0010000010000110010000000100010001101000110000010000010001101100001000
1000100100010000000000000000000000000000000000000000000000000000000000
0000000001111110001000000010000011111100100110101011000100100001011001
1000110100001000100110000011000100110000000100011001001110100000011110
0100010010000010011000100100010000000000000000000000000000000000000000
0000000000000000000000000010000010001100000010000001000000100110000010
0001001000010010001000100110001100100010000010000100010000000100010001
1010000000000000100100011011000010001000100011100000000000000000000000
0000000000000000000000000000000000000000000010000011001000000011000001
0000001000100000110011001000110010011000110010001001100110000011000100
0100000001000110010011000000000000100100010010000010001000100100000001
0000000000000000000000000000000000000000000000000000000000000110000011
0001100000011110001110011100011100011010011100011111001100110001110001
1001100000001110001110000001110110011001111000000111100101100011000111
0110011001111110010000000000000000000000000000000000000000000000000000
0000000000000000000000000000000000000000000000000000000000000000000000
0000000000000000000000000000000000000000000000000000000000000000000000
0001000000000000000000000001000010000000000000000000000000000000000000
0000000000000000000000000000000000000000000000000000000000000000000000
0000000000000000000000000000000000000000000000000000000000000000000000
0000000000000000000001000000000000000000000001000010000000000000000000
0000000000000000000000000000000000000000000000000000000000000000000000
0000000000000000000000000000000000000000000000000000000000000000000000
0000000000000000000000000000000000000011100000000000000000000001101100
0000000000000000000000000000000000000000000000000000000000000000000000
0000000000000000000000000000000000000000000000000000000000000000000000
0000000000000000000000000000000000000000000000000000000000000000000000
0000000000000000000000000000000000000000000000000000000000000000000000
0000000000000000000000000000000000000000000000000000000000000000000000
0000000000000000000000000000000000000000000000000000000000000000000000
0000000000000000000000000000000000000000000000000000000000000000000000
0000000000000000000000000000000000000000000000000000000000000000000000
0000000000000000000000000000000000000000000000000000000000000000000000
0000000000000000000000000000000000000000000000000000000000000000000000
0000000000000000000000000000000000000000000000000000000000000000000000
0000000000000000000000000000000000000000000000000000000000000000000000
0000000000000000000000000000000000000000000000000000000000000000000000
0000000000000000000000000000000000000000000000000000000000000000000000
0000000000000000000000000000000000000000000000000000000000000000000000
0000000000000000000000000000000000000000000000000000000000000000000000
0000000000000000000000000000000000000000000000000000000000000000000000
0000000000000000000000000000000000000000000000000000000000000000000000
0000000000000000000000000000000000000000000000000000000000000000000000
0000000000000000000000000000000000000000000000000000000000000000000000
0000000000000000000000000000000000000000000000000000000000000000000000
0000000000000000000000000000000000000000000000000000000000000000000000
0000000000000000000000000000000000000000000000000000000000000000000000
0000000000000000000000000000000000000000000000000000000000000000000000
0000000000000000000000000000000000000000000000000000000000000000000000
0000000000000000000000000000000000000000000000000000000000000000000000
0000000000000000000000000000000000000000000000000000000000000000000000
0000000000000000000000000000000000000000000000000000000000000000000000
0000000000000000000000000000000000000000000000000000000000000000000000
0000000000000000000000000000000000000000000000000000000000000000000000
0000000000000000000000000000000000000000000000000000000000000000000000
0000000000000000000000000000000000000000000000000000000000000000000000
0000000000000000000000000000000000000000000000000000000000000000000000
0000000000000000000000000000000000000000000000000000000000000000000000
0000000000000000000000000000000000000000000000000000000000000000000000
0000000000000000000000000000000000000000000000000000000000000000000000
0000000000000000000000000000000000000000000000000000000000000000000000
0000000000000000000000000000000000000000000000000000000000000000000000
0000000000000000000000000000000000000000000000000000000000000000000000
0000000000000000000000000000000000000000000000000000000000000000000000
0000000000000000000000000000000000000000000000000000000000000000000000
0000000000000000000000000000000000000000000000000000000000000000000000
0000000000000000000000000000000000000000000000000000000000000000000000
0000000000000000000000000000000000000000000000000000000000000000000000
0000000000000000000000000000000000000000000000000000000000000000000000
0000000000000000000000000000000000000000000000000000000000000000000000
0000000000000000000000000000000000000000000000000000000000000000000000
0000000000000000000000000000000000000000000000000000000000000000000000
0000000000000000000000000000000000000000000000000000000000000000000000
0000000000000000000000000000000000000000000000000000000000000000000000
0000000000000000000000000000000000000000000000000000000000000000000000
0000000000000000000000000000000000000000000000000000000000000000000000
0000000000000000000000000000000000000000000000000000000000000000000000
0000000000000000000000000000000000000000000000000000000000000000000000
0000000000000000000000000000000000000000000000000000000000000000000000
0000000000000000000000000000000000000000000000000000000000000000000000
0000000000000000000000000000000000000000000000000000000000000000000000
0000000000000000000000000000000000000000000000000000000000000000000000
0000000000000000000000000000000000000000000000000000000000000000000000
0000000000000000000000000000000000000000000000000000000000000000000000
0000000000000000000000000000000000000000000000000000000000000000000000
0000000000000000000000000000000000000000000000000000000000000000000000
0000000000000000000000000000000000000000000000000000000000000000000000
0000000000000000000000000000000000000000110000000000000000000000000110
0000000000000000000000000000000000000000000000000000000000000000000000
0000000000000000000000000000000000000000000000000000000000000000000000
0000110011000000000000000000000000000000000000000000000001000000000000
0000000000000010000000000000000000000000000000000000000000000000000000
1000000000000001000000000000000000000000000000000000000000000000000000
0000000000000000000000110010000000000000000000000000000000000000000000
0000010000000000000000000000000010000000000000000000000000000000000000
0000000000000000001000000000000001000000000000000000000000000000000000
0000000000000000000000000000000000000000110010000000000000000000000000
0000000000000000000000010000000000000000000000000010000000000000000000
0000000000000000000000000000000000001000000000010000000000000000000000
0000000000000000000000000000000000000000000000000000000000110000011111
0111000000111110000111000110000001100000111101101001110000111000000111
1001101000101100000011100011010011111100011100011100001000111100111001
0000111000111110000000000000000000000000000000000000000000000000000000
0000001100000010011001100000010011001000110010001000000000010001100010
0010010011000000100010001100100000001100010100001001000100100000100010
0010000001001000010001000100010011000000000000000000000000000000000000
0000000000000000000000001000000110001000100000010001001000010010011001
0000000100010000100010110001000000100010000100100000001000000100001001
0001001100001000110010000001001100010011000110110001000000000000000000
0000000000000000000000000000000000000000001100000010001000100000010001
0010000100110111000000000100011000111110111011000000100010000100100000
0010000001000010010001000111001000010010001011000100010001000010010001
0000000000000000000000000000000000000000000000000000000000001100000110
0110011000001100010010001100011001100000000100010000100000100000000000
1000100001001000000011000001000010010001000001101000110010010001001000
0100110001101100110000000000000000000000000000000000000000000000000000
0000000011000000100010001000000100010010001000011001100000000100011000
1100000100000000001000110011001000000001000001100110010001000000101000
1000100110010011000100010001000100010010000000000000000000000000000000
0000000000000000000000000011000001100110011000001100110001110000001001
0000000011100110000111000111100000011100010100001100000001111000101000
0110011011110001110001110011111001100110001110001100110011000000000000
0000000000000000000000000000000000000000000000000000000000000000000000
0000000000000000000000000000000000000000000000000000000000000000000000
0000000000000000000000000000000000000000000000000000000000000000000000
0000100000000000000000000000000000000000000000000000000000000000000000
0000000000000000000000000000000000000000000000000000000000000000000000
0000000000000000000000000000000000000000000000000000000000000000000000
0000000000000000000000000000000000000000000000000000000000000000000000
0000000000000000000000000000000000000000000000000000000000000000000000
0000000000000000000000000000000000000000000000000000000000000000000000
0000000000000000000000000000000000000000000000000000000000000000000000
0000000000000000000000000000000000000000000000000000000000000000000000
0000000000000000000000000000000000000000000000000000000000000000000000
0000000000000000000000000000000000000000000000000000000000000000000000
0000000000000000000000000000000000000000000000000000000000000000000000
0000000000000000000000000000000000000000000000000000000000000000000000
0000000000000000000000000000000000000000000000000000000000000000000000
0000000000000000000000000000000000000000000000000000000000000000000000
0000000000000000000000000000000000000000000000000000000000000000000000
0000000000000000000000000000000000000000000000000000000000000000000000
0000000000000000000000000000000000000000000000000000000000000000000000
0000000000000000000000000000000000000000000000000000000000000000000000
0000000000000000000000000000000000000000000000000000000000000000000000
0000000000000000000000000000000000000000000000000000000000000000000000
0000000000000000000000000000000000000000000000000000000000000000000000
0000000000000000000000000100000000000000000000000000000000000000000000
0000000000000000000000000000000000000000000000000000000000000000000000
0000000000000000000000000000000000000000000000000001100000000000000000
1000000000011000000000000000000001100000001000000000011000000000000000
0000000000000110000000000000010000000000110000000000000000000001110000
0000000000000000000100000000000000000000000000000000000000000000000001
1000000000000000001000000000010000000000000000000001000000010000000000
0010000000000000000000000000000010000000000000000000000000010000000000
0000000000001000000000000000000000000110000000000000000000000000000000
0000000000000000101000000000000000001000000100011000000000000000000001
1000000100000000000010000001000000000000000000000010000000000000000000
0000100100000010000000000000001100000000000000000000000100000000000000
0000000000000000000000000000000000101100001111100001101000000111001111
0001111001111100010001001111011001100110000011100011100000000111000110
0111110111000110001111000111100011101100110000001000000001101000111100
1101100100000000000000000000000000000000000000000001000100000100110010
0010000001000100011000001000100110011010000100001000100010000001000100
0100000000011000100100010001100100010001000100110010001100000000001000
0000010001001000010001100100000000000000000000000000000000000000000001
0001100011000101100010000001000110001000001000100010010010000100011000
1001100000010001000110000000001001100110011001000110010001100100010010
0001001000000010000000100001001100010001000000000000000000000000000000
0000000000000000011111100001000101100010000001000010001001011100100010
0111100001000010001000100000010001000010000001011000100100010001100100
0100010001000100100001001000000010000000110001001000110001100000000000
0000000000000000000000000000000000100000100011001100100010000001000110
0110100010011000100110100001100110011001100000010001000110000010001001
1001100110010001100011100011000100100001110000000010000000100001001100
0100010000000000000000000000000000000000000000000000100000110001000100
1000100000010000100010110010001000100010010001000010001000100000010001
0001000000100010001001000100011001000100000001000100100000110000000010
0000101100010010000100011001000000000000000000000000000000000000000001
1000001100110011001111110000011101100110011111011001100110011001100011
1110011000000111001110000000111110011001100110011001100111111011001100
1110001000000001111111000011100011000011111001000000000000000000000000
0000000000000000000000000000000000000000000000000000000000000000000000
0000000000000000000000000000000000000000000000000000000000000000000000
0001000010000000000000001000000000000000000000000000000000000000000000
0000000000000000000000000000000000000000000000000000000000000000000000
0000000000000000000000000000000000000000000000000000000000000000000000
0000000000000000000001000010000000000000000000000000000000000000000000
0000000000000000000000000000000000000000000000000000000000000000000000
0000000000000000000000000000000000000000000000000000000000000000000000
0000000000000000000000000000000000000001101100000000000001110000000000
0000000000000000000000000000000000000000000000000000000000000000000000
0000000000000000000000000000000000000000000000000000000000000000000000
0000000000000000000000000000000000000000000000000000000000000000000000
0000000000000000000000000000000000000000000000000000000000000000000000
0000000000000000000000000000000000000000000000000000000000000000000000
0000000000000000000000000000000000000000000000000000000000000000000000
0000000000000000000000000000000000000000000000000000000000000000000000
0000000000000000000000000000000000000000000000000000000000000000000000
0000000000000000000000000000000000000000000000000000000000000000000000
0000000000000000000000000000000000000000000000000000000000000000000000
0000000000000000000000000000000000000000000000000000000000000000000000
0000000000000000000000000000000000000000000000000000000000000000000000
0000000000000000000000000000000000000000000000000000000000000000000000
0000000000000000000000000000000000000000000000000000000000000000000000
0000000000000000000000000000000000000000000000000000000000000000000000
0000000000000000000000000000000000000010000000000000000000000000000000
0000000000000000000000000000000000000000000000000000000000000000000000
0000000000000000000000000110000000000000110000000000000000000000000000
0000000000000000000000000000000000000000000000000000000100000011000000
1000000000000000000000000000000000000000000100000000000000000000000000
0000000000000000000000000000000000000000000110000000000000010000000000
0000000000000000000000000000000000000000000000000000000000000000000000
0010000000100000000000000000000000000000000000000000000000000000000000
0000000000000000000000000000000000000000000000000000000000001010000001
0000000100000000000000000000001000000000001000000000000000000000000000
0000000000000000000010000000110000000000000000000000000000000000000000
0000010000000000000000000000000000000000000000000000000000000000000000
0000000010110000111000000100011100011010001110011100000000011100110100
0000001110001111100001110000000111000111100000011110001100110100000001
1100110100111000111100111001100011100011111000111000000000000000000000
0000000000000000000000000100010000100000000100010010000011010000001000
0000000100001000100000010001000100110010011000001000100010000000100011
0010001000000001100010110001000100000100010001000100010001001101000000
0000000000000000000000000000000000000000000100011000110000000100100011
0000100010000110000000000110010000100000110001101100010110001000001000
1100100000001100010011001000000001000000100001000100000100110001101100
0110110001001000000000000000000000000000000000000000000000000111111000
0100000001001101010010110011100010000000000010011000100000010000100100
0101110110000010000100100000000100010010001111000001000000110001111100
1011000100010001000010010001001110000000000000000000000000000000000000
0000000010000010001000000001001100000100100000110110000000000100010000
1000001100011011001100100000000010001100110000001100110011000001000001
1000001000010000011001001100011011000110110011000011000000000000000000
0000000000000000000000000010000011001100000001000100000100110100010010
0010000001100010001000000100010001000100100000000010001000100000000100
0100100000010000001000001100011000001001000100010001000100010001010001
0000000000000000000000000000000000000000000110000011000110000011000111
1001110100111000110011000000110011010000000011100011001100111100000001
1100001100000011001100110111100000001111001100001110001101100110011000
1110001100110011100000000000000000000000000000000000000000000000000000
0000000000000000000000000000000000000010000000000000000000000000000000
0000000000000000000000000000000000000000000000000000000000000000000000
0000000000000000000000000000000000000000000000000000000000000000000000
0000000000000000000000000000000000000000000000000000000000000000000000
0000000000000000000000000000000000000000000000000000000000000000000000
0000000000000000000000000000000000000000000000000000000000000000000000
0000000000000000000000000000000000000000000000000000000000000000000000
0000000000000000000000000000000000000000000000000000000000000000000000
0000000000000000000000000000000000000000000000000000000000000000000000
0000000000000000000000000000000000000000000000000000000000000000000000
0000000000000000000000000000000000000000000000000000000000000000000000
0000000000000000000000000000000000000000000000000000000000000000000000
0000000000000000000000000000000000000000000000000000000000000000000000
0000000000000000000000000000000000000000000000000000000000000000000000
0000000000000000000000000000000000000000000000000000000000000000000000
0000000000000000000000000000000000000000000000000000000000000000000000
0000000000000000000000000000000000000000000000000000000000000000000000
0000000000000000000000000000000000000000000000000000000000000000000000
0000000000000000000000000000000000000000000000000000000000000000000000
0000000000000000000000000000000000000000000000000000000000000000000000
0000000000000000000000000000000000000000000000000000000000000000000000
0000000000000000000000000000000000000000000000000000000000000000000000
0000000000000000000000000000000000000000000000000000000000000000000000
0000000000000000000000000000000000000000001100000000000000000000000000
0000000000000000000000000000000000000000000000000000000000000000000000
0000000000000000000000000000000000000000000000000000000000000000001100
1100000000000000000000000000010000000000000000000000000000010000000000
0000000000000001100000000000000000000000001100000000000000000110000001
1000000000000000000000000000000000001100000011001100000000000000000000
0000000000000011001000000000000000000000000000010000000000000000000000
0000000100000000000000000000000000100000000000000000000000000000000000
0000000000100000000000000000000000000000000000000000000100000001000100
0000000000000000000000000000000011001000000000000000000000000000000000
0000000000000000000000000100000000000000000000000000100000000000000000
0000000000000000000000001000100000000000000000000000000000000000000000
0001000000010001000000000000000000000000000000000011000001100010001110
0000001111001100110001100111000111110000001111011010011100001110001111
1000111000111111011100000011001111100000011100111100011000111000001100
0000010011010001111011000111110011000000000000000000000000000000000011
0000011000100100110000010001000100010001001000100100010000000100011000
1000100100110010001001000100010001000100000001001000100000010000100110
0010010000000001000100100010001001000001001000010001000000000000000000
0000000000000000100000001001001100010000010001000100011001001000100100
0110000001000100001000101100010100001001000110010001000100000011001000
1100000110001000100110011000000001101110100100001001100011001000110001
0000000000000000000000000000000000110000001101001110110000010001000100
0010000011111001000100000001000110001111101110110100001001000010010001
0001000000010010001000000010001000100010001110000000101010100110001001
0000010010000100010000000000000000000000000000000000110000000100000100
0000000011100001000011100010000001100110000001000100001000001000000110
0010010001100100010001000000110011001100000100011000100110000010000000
1100110001000010011000110010001100000000000000000000000000000000000000
1100000001100001000000000100000001000001100011000001000100000001000110
0011000001000001100010010001100100010001000000010010001000000110001000
1000100000110000001100110000100010010000010011000100010000000000000000
0000000000000000001100000000100001111000000111111001100001000001110001
1001100000111001100001110001111000111111001110001100110011000000110011
0011000000110110011001100110100000000100010000110100011000110001111100
0100000000000000000000000000000000000000000000000000000000000100001000
0000000000000000000000000000000000000000000000000000000000000000000000
0000000000000000000000000000000000000000000000000000000000000000000000
0000000000000000000000000000000000000000000000000000000000000000000000
0000000001000010000000000000000000000000000000000000000000000000000000
0000000000000000000000000000000000000000000000000000000000000000000000
0000000000000000000000000000000000000000000000000000000000000000000000
0000000000000000000000000001101100000000000000000000000000000000000000
0000000000000000000000000000000000000000000000000000000000000000000000
0000000000000000000000000000000000000000000000000000000000000000000000
0000000000000000000000000000000000000000000000000000000000000000000000
0000000000000000000000000000000000000000000000000000000000000000000000
0000000000000000000000000000000000000000000000000000000000000000000000
0000000000000000000000000000000000000000000000000000000000000000000000
0000000000000000000000000000000000000000000000000000000000000000000000
0000000000000000000000000000000000000000000000000000000000000000000000
0000000000000000000000000000000000000000000000000000000000000000000000
0000000000000000000000000000000000000000000000000000000000000000000000
0000000000000000000000000000000000000000000000000000000000000000000000
0000000000000000000000000000000000000000000000000000000000000000000000
0000000000000000000000000000000000000000000000000000000000000000000000
0000000000000000000000000000000000000000000000000000000000000000000000
0000000000000000000000000000000000000000000000000000000000000000000000
0000000000000000000000000000000000000000000000000000000000000000000000
0000000000000000000000000000000000000000000000000000000000000000000000
0000000000000000000000000000000000000000000000000000000000000000000000
0000000000000000000000000000000000000000000000000000000000000000000000
0000000000000000000000000000000000000000000000000000000000000000000000
0000000000000000000000000000000000000000000000000000000000000000000000
0000000000000000000000000000000000000000000000000000000000000000000000
0000000000000000000000000000000000000000000000000000000000000000000000
0000000000000000000000000000000000000000000000000000000000000000000000
0000000000000000000000000000000000000000000000000000000000000000000000
0000000000000000000000000000000000000000000000000000000000000000000000
0000000000000000000000000000000000000000000000000000000000000000000000
0000000000000000000000000000000000000000000000000000000000000000000000
0000000000000000000000000000000000000000000000000000000000000000000000
0000000000000000000000000000000000000000000000000000000000000000000000
0000000000000000000000000000000000000000000000000000000000000000000000
0000000000000000000000000000000000000000000000000000000000000000000000
0000000000000000000000000000000000000000000000000000000000000000000000
0000000000000000000000000000000000000000000000000000000000000000000000
0000000000000000000000000000000000000000000000000000000000000000000000
0000000000000000000000000000000000000000000000000000000000000000000000
0000000000000000000000000000000000000000000000000000000000000000000000
0000000000000000000000000000000000000000000000000000000000000000000000
0000000000000000000000000000000000000000000000000000000000000000000000
0000000000000000000000000000000000000000000000000000000000000000000000
0000000000000000000000000000000000000000000000000000000000000000000000
0000000000000000000000000000000000000000000000000000000000000000000000
0000000000000000000000000000000000000000000000000000000000000000000000
0000000000000000000000000000000000000000000000000000000000000000000000
0000000000000000000000000000000000000000000000000000000000000000000000
0000000000000000000000000000000000000000000000000000000000000000000000
0000000000000000000000000000000000000000000000000000000000000000000000
000000000000000000000000000000000000000000000000000000